<svg width="187" height="65" viewBox="0 0 187 65" fill="none" xmlns="http://www.w3.org/2000/svg">
<path d="M29.7618 7.34673L36.0155 13.6004L29.7618 19.8541L23.5081 13.6004L29.7618 7.34673ZM29.7618 0L16.1614 13.6004L29.7618 27.2008L43.3622 13.6004L29.7618 0Z" fill="white"/>
<path d="M22.3859 25.1444L17.644 20.4026L12.9022 25.1444L17.644 29.8863L22.3859 25.1444Z" fill="white"/>
<path d="M25.9326 39.6725L21.9831 35.7231L27.5248 30.1825L24.0653 26.7231L17.6181 33.1713L11.1627 26.7159L0 37.8797L4.97728 42.8559L7.43535 40.3978L4.99663 37.9601L11.1423 31.8144L16.8052 37.4763V54.7449L19.575 57.5147L25.9326 39.6725Z" fill="white"/>
<path d="M6.42798 44.3076L10.4854 40.2491L8.24429 38.008L11.2993 34.953L14.7292 38.3829V52.6088L6.42798 44.3076Z" fill="white"/>
<path d="M42.0455 29.8865L46.7874 25.1447L42.0455 20.4028L37.3037 25.1447L42.0455 29.8865Z" fill="white"/>
<path d="M33.757 39.6724L37.7064 35.723L32.1658 30.1824L35.6242 26.7229L42.0724 33.1712L48.5268 26.7158L59.6905 37.8795L54.7133 42.8558L52.2552 40.3977L54.6929 37.96L48.5472 31.8143L42.8854 37.4761V54.7448L40.1145 57.5146L33.757 39.6724Z" fill="white"/>
<path d="M53.2627 44.3074L49.2043 40.249L51.4464 38.0079L48.3914 34.9529L44.9604 38.3828V52.6087L53.2627 44.3074Z" fill="white"/>
<path d="M30.6767 38.4083L33.7979 35.2871L29.7955 31.2847L25.7941 35.2871L29.0142 38.5071L22.4844 57.261L22.2705 57.475L29.7955 65L37.3205 57.475L30.6767 38.4083Z" fill="white"/>
<path d="M82.9467 21H81.0027L80.5107 19.644H77.0787L76.5747 21H74.6307L77.7267 12.996H79.8627L82.9467 21ZM80.0427 18.144L78.7947 14.7L77.5467 18.144H80.0427ZM87.7516 21.144C85.3516 21.144 83.4916 19.464 83.4916 17.004C83.4916 14.544 85.3516 12.864 87.7516 12.864C89.5156 12.864 90.5356 13.824 91.0996 14.82L89.6356 15.54C89.2996 14.892 88.5796 14.376 87.7516 14.376C86.2996 14.376 85.2436 15.492 85.2436 17.004C85.2436 18.516 86.2996 19.632 87.7516 19.632C88.5796 19.632 89.2996 19.128 89.6356 18.468L91.0996 19.176C90.5236 20.172 89.5156 21.144 87.7516 21.144ZM96.5899 21.144C94.1899 21.144 92.3299 19.464 92.3299 17.004C92.3299 14.544 94.1899 12.864 96.5899 12.864C98.3539 12.864 99.3739 13.824 99.9379 14.82L98.4739 15.54C98.1379 14.892 97.4179 14.376 96.5899 14.376C95.1379 14.376 94.0819 15.492 94.0819 17.004C94.0819 18.516 95.1379 19.632 96.5899 19.632C97.4179 19.632 98.1379 19.128 98.4739 18.468L99.9379 19.176C99.3619 20.172 98.3539 21.144 96.5899 21.144ZM105.344 21.144C102.932 21.144 101.168 19.416 101.168 17.004C101.168 14.592 102.932 12.864 105.344 12.864C107.768 12.864 109.532 14.592 109.532 17.004C109.532 19.416 107.768 21.144 105.344 21.144ZM105.344 19.632C106.82 19.632 107.78 18.492 107.78 17.004C107.78 15.504 106.82 14.376 105.344 14.376C103.868 14.376 102.92 15.504 102.92 17.004C102.92 18.492 103.868 19.632 105.344 19.632ZM114.599 21H112.883V14.496H110.543V12.996H116.927V14.496H114.599V21ZM122.202 21.144C119.802 21.144 117.942 19.464 117.942 17.004C117.942 14.544 119.802 12.864 122.202 12.864C123.966 12.864 124.986 13.824 125.55 14.82L124.086 15.54C123.75 14.892 123.03 14.376 122.202 14.376C120.75 14.376 119.694 15.492 119.694 17.004C119.694 18.516 120.75 19.632 122.202 19.632C123.03 19.632 123.75 19.128 124.086 18.468L125.55 19.176C124.974 20.172 123.966 21.144 122.202 21.144ZM128.809 21H127.165V12.996H128.869V18.168L132.577 12.996H134.329V21H132.625V15.636L128.809 21ZM143.971 21H142.027L141.535 19.644H138.103L137.599 21H135.655L138.751 12.996H140.887L143.971 21ZM141.067 18.144L139.819 14.7L138.571 18.144H141.067ZM148.101 21H146.385V14.496H144.045V12.996H150.429V14.496H148.101V21ZM155.704 21.144C153.304 21.144 151.444 19.464 151.444 17.004C151.444 14.544 153.304 12.864 155.704 12.864C157.468 12.864 158.488 13.824 159.052 14.82L157.588 15.54C157.252 14.892 156.532 14.376 155.704 14.376C154.252 14.376 153.196 15.492 153.196 17.004C153.196 18.516 154.252 19.632 155.704 19.632C156.532 19.632 157.252 19.128 157.588 18.468L159.052 19.176C158.476 20.172 157.468 21.144 155.704 21.144ZM162.31 21H160.666V12.996H162.37V18.168L166.078 12.996H167.83V21H166.126V15.636L162.31 21ZM171.616 21H169.66L171.46 17.952C170.596 17.748 169.708 16.992 169.708 15.576C169.708 14.088 170.728 12.996 172.396 12.996H176.14V21H174.436V18.156H173.2L171.616 21ZM172.648 16.656H174.436V14.496H172.648C171.964 14.496 171.448 14.904 171.448 15.576C171.448 16.248 171.964 16.656 172.648 16.656ZM179.963 21H178.319V12.996H180.023V18.168L183.731 12.996H185.483V21H183.779V15.636L179.963 21ZM79.3587 36.144C76.9587 36.144 75.0987 34.464 75.0987 32.004C75.0987 29.544 76.9587 27.864 79.3587 27.864C81.1227 27.864 82.1427 28.824 82.7067 29.82L81.2427 30.54C80.9067 29.892 80.1867 29.376 79.3587 29.376C77.9067 29.376 76.8507 30.492 76.8507 32.004C76.8507 33.516 77.9067 34.632 79.3587 34.632C80.1867 34.632 80.9067 34.128 81.2427 33.468L82.7067 34.176C82.1307 35.172 81.1227 36.144 79.3587 36.144ZM88.113 36.144C85.701 36.144 83.937 34.416 83.937 32.004C83.937 29.592 85.701 27.864 88.113 27.864C90.537 27.864 92.301 29.592 92.301 32.004C92.301 34.416 90.537 36.144 88.113 36.144ZM88.113 34.632C89.589 34.632 90.549 33.492 90.549 32.004C90.549 30.504 89.589 29.376 88.113 29.376C86.637 29.376 85.689 30.504 85.689 32.004C85.689 33.492 86.637 34.632 88.113 34.632ZM100.229 38.496V36H99.2327L97.2407 32.76L95.2487 36H93.3047L96.1487 31.584L93.4847 27.432H95.4887L97.3367 30.516L99.1487 27.432H101.105L98.4167 31.68L100.265 34.44H101.981V38.496H100.229ZM105.259 36H103.615V27.996H105.319V33.168L109.027 27.996H110.779V36H109.075V30.636L105.259 36ZM112.957 27.996H118.801V29.496H114.661V30.912H116.737C118.441 30.912 119.389 32.076 119.389 33.456C119.389 34.836 118.453 36 116.737 36H112.957V27.996ZM116.509 32.412H114.661V34.5H116.509C117.169 34.5 117.649 34.092 117.649 33.456C117.649 32.808 117.169 32.412 116.509 32.412ZM127.897 36H125.797L123.373 32.796L122.749 33.54V36H121.045V27.996H122.749V31.572L125.581 27.996H127.681L124.501 31.752L127.897 36ZM132.504 36.144C130.092 36.144 128.328 34.416 128.328 32.004C128.328 29.592 130.092 27.864 132.504 27.864C134.928 27.864 136.692 29.592 136.692 32.004C136.692 34.416 134.928 36.144 132.504 36.144ZM132.504 34.632C133.98 34.632 134.94 33.492 134.94 32.004C134.94 30.504 133.98 29.376 132.504 29.376C131.028 29.376 130.08 30.504 130.08 32.004C130.08 33.492 131.028 34.632 132.504 34.632ZM140.191 36H138.487V27.996H142.231C143.971 27.996 144.919 29.172 144.919 30.576C144.919 31.968 143.959 33.156 142.231 33.156H140.191V36ZM142.003 31.656C142.675 31.656 143.179 31.236 143.179 30.576C143.179 29.904 142.675 29.496 142.003 29.496H140.191V31.656H142.003ZM150.368 36.144C147.956 36.144 146.192 34.416 146.192 32.004C146.192 29.592 147.956 27.864 150.368 27.864C152.792 27.864 154.556 29.592 154.556 32.004C154.556 34.416 152.792 36.144 150.368 36.144ZM150.368 34.632C151.844 34.632 152.804 33.492 152.804 32.004C152.804 30.504 151.844 29.376 150.368 29.376C148.892 29.376 147.944 30.504 147.944 32.004C147.944 33.492 148.892 34.632 150.368 34.632ZM163.551 36H161.835V32.64H158.055V36H156.351V27.996H158.055V31.14H161.835V27.996H163.551V36ZM167.373 36H165.729V27.996H167.433V33.168L171.141 27.996H172.893V36H171.189V30.636L167.373 36ZM75.4827 42.996H81.3267V44.496H77.1867V45.912H79.2627C80.9667 45.912 81.9147 47.076 81.9147 48.456C81.9147 49.836 80.9787 51 79.2627 51H75.4827V42.996ZM79.0347 47.412H77.1867V49.5H79.0347C79.6947 49.5 80.1747 49.092 80.1747 48.456C80.1747 47.808 79.6947 47.412 79.0347 47.412ZM91.035 51H89.091L88.599 49.644H85.167L84.663 51H82.719L85.815 42.996H87.951L91.035 51ZM88.131 48.144L86.883 44.7L85.635 48.144H88.131ZM91.8941 52.476V49.632C92.7101 49.524 93.1661 49.2 93.4181 47.088L93.8861 42.996H99.5741V49.5H100.294V52.476H98.5901V51H93.5981V52.476H91.8941ZM95.1101 47.208C94.9901 48.288 94.6421 49.032 94.1381 49.5H97.8581V44.496H95.4221L95.1101 47.208ZM109.356 51H107.412L106.92 49.644H103.488L102.984 51H101.04L104.136 42.996H106.272L109.356 51ZM106.452 48.144L105.204 44.7L103.956 48.144H106.452ZM117.955 51H115.915L113.911 48.072L111.895 51H109.867L112.771 46.896L110.047 42.996H112.075L113.911 45.732L115.723 42.996H117.775L115.051 46.884L117.955 51ZM127.807 42.996H129.523V51H119.311V42.996H121.015V49.5H123.559V42.996H125.275V49.5H127.807V42.996ZM135.504 51.144C133.092 51.144 131.328 49.416 131.328 47.004C131.328 44.592 133.092 42.864 135.504 42.864C137.928 42.864 139.692 44.592 139.692 47.004C139.692 49.416 137.928 51.144 135.504 51.144ZM135.504 49.632C136.98 49.632 137.94 48.492 137.94 47.004C137.94 45.504 136.98 44.376 135.504 44.376C134.028 44.376 133.08 45.504 133.08 47.004C133.08 48.492 134.028 49.632 135.504 49.632ZM148.687 51H146.971V47.64H143.191V51H141.487V42.996H143.191V46.14H146.971V42.996H148.687V51Z" fill="white"/>
</svg>
