<svg width="618" height="215" viewBox="0 0 618 215" fill="none" xmlns="http://www.w3.org/2000/svg">
<path d="M99.2613 24.3007L119.947 44.986L99.2613 65.6712L78.5761 44.986L99.2613 24.3007ZM99.2613 0L54.2754 44.986L99.2613 89.9719L144.247 44.986L99.2613 0Z" fill="#F98E82"/>
<path d="M74.8644 83.17L59.1799 67.4855L43.4953 83.17L59.1799 98.8546L74.8644 83.17Z" fill="#BF1E2C"/>
<path d="M86.5954 131.225L73.5319 118.161L91.8619 99.8345L80.4192 88.3917L59.0937 109.721L37.7413 88.3682L0.818481 125.294L17.2818 141.754L25.4123 133.624L17.3458 125.561L37.6739 105.232L56.4049 123.96V181.079L65.5665 190.241L86.5954 131.225Z" fill="#294B5B"/>
<path d="M22.0799 146.556L35.5006 133.132L28.0877 125.719L38.1928 115.614L49.5378 126.959V174.014L22.0799 146.556Z" fill="#BF1E2C"/>
<path d="M139.893 98.8553L155.577 83.1708L139.893 67.4862L124.208 83.1708L139.893 98.8553Z" fill="#BF1E2C"/>
<path d="M112.476 131.224L125.54 118.161L107.213 99.834L118.653 88.3913L139.982 109.72L161.331 88.3677L198.257 125.294L181.793 141.754L173.663 133.623L181.726 125.56L161.398 105.232L142.67 123.96V181.079L133.505 190.241L112.476 131.224Z" fill="#294B5B"/>
<path d="M176.995 146.555L163.571 133.131L170.988 125.718L160.882 115.613L149.534 126.958V174.013L176.995 146.555Z" fill="#BF1E2C"/>
<path d="M102.287 127.043L112.611 116.719L99.3725 103.48L86.1372 116.719L96.7881 127.37L75.1897 189.402L74.4821 190.11L99.3725 215L124.263 190.11L102.287 127.043Z" fill="#BF1E2C"/>
<path d="M275.18 71.5H268.75L267.123 67.0148H255.771L254.104 71.5H247.674L257.914 45.0252H264.98L275.18 71.5ZM265.575 62.0532L261.447 50.6615L257.319 62.0532H265.575ZM291.074 71.9763C283.135 71.9763 276.983 66.4194 276.983 58.2825C276.983 50.1455 283.135 44.5886 291.074 44.5886C296.909 44.5886 300.282 47.764 302.148 51.0585L297.305 53.44C296.194 51.2966 293.813 49.5898 291.074 49.5898C286.271 49.5898 282.778 53.2812 282.778 58.2825C282.778 63.2837 286.271 66.9751 291.074 66.9751C293.813 66.9751 296.194 65.308 297.305 63.1249L302.148 65.4668C300.243 68.7612 296.909 71.9763 291.074 71.9763ZM320.308 71.9763C312.37 71.9763 306.217 66.4194 306.217 58.2825C306.217 50.1455 312.37 44.5886 320.308 44.5886C326.143 44.5886 329.517 47.764 331.382 51.0585L326.54 53.44C325.428 51.2966 323.047 49.5898 320.308 49.5898C315.505 49.5898 312.012 53.2812 312.012 58.2825C312.012 63.2837 315.505 66.9751 320.308 66.9751C323.047 66.9751 325.428 65.308 326.54 63.1249L331.382 65.4668C329.477 68.7612 326.143 71.9763 320.308 71.9763ZM349.265 71.9763C341.286 71.9763 335.452 66.2606 335.452 58.2825C335.452 50.3043 341.286 44.5886 349.265 44.5886C357.282 44.5886 363.117 50.3043 363.117 58.2825C363.117 66.2606 357.282 71.9763 349.265 71.9763ZM349.265 66.9751C354.147 66.9751 357.322 63.2043 357.322 58.2825C357.322 53.3209 354.147 49.5898 349.265 49.5898C344.382 49.5898 341.247 53.3209 341.247 58.2825C341.247 63.2043 344.382 66.9751 349.265 66.9751ZM379.877 71.5H374.201V49.9868H366.461V45.0252H387.577V49.9868H379.877V71.5ZM405.026 71.9763C397.088 71.9763 390.936 66.4194 390.936 58.2825C390.936 50.1455 397.088 44.5886 405.026 44.5886C410.861 44.5886 414.235 47.764 416.101 51.0585L411.258 53.44C410.147 51.2966 407.765 49.5898 405.026 49.5898C400.224 49.5898 396.731 53.2812 396.731 58.2825C396.731 63.2837 400.224 66.9751 405.026 66.9751C407.765 66.9751 410.147 65.308 411.258 63.1249L416.101 65.4668C414.195 68.7612 410.861 71.9763 405.026 71.9763ZM426.878 71.5H421.44V45.0252H427.076V62.1326L439.341 45.0252H445.136V71.5H439.5V53.7575L426.878 71.5ZM477.03 71.5H470.6L468.972 67.0148H457.62L455.953 71.5H449.523L459.764 45.0252H466.829L477.03 71.5ZM467.424 62.0532L463.296 50.6615L459.168 62.0532H467.424ZM490.69 71.5H485.014V49.9868H477.274V45.0252H498.39V49.9868H490.69V71.5ZM515.839 71.9763C507.901 71.9763 501.748 66.4194 501.748 58.2825C501.748 50.1455 507.901 44.5886 515.839 44.5886C521.674 44.5886 525.048 47.764 526.913 51.0585L522.071 53.44C520.96 51.2966 518.578 49.5898 515.839 49.5898C511.036 49.5898 507.544 53.2812 507.544 58.2825C507.544 63.2837 511.036 66.9751 515.839 66.9751C518.578 66.9751 520.96 65.308 522.071 63.1249L526.913 65.4668C525.008 68.7612 521.674 71.9763 515.839 71.9763ZM537.691 71.5H532.253V45.0252H537.889V62.1326L550.154 45.0252H555.949V71.5H550.313V53.7575L537.691 71.5ZM568.473 71.5H562.003L567.957 61.4182C565.099 60.7434 562.162 58.2428 562.162 53.5591C562.162 48.6372 565.536 45.0252 571.053 45.0252H583.437V71.5H577.8V62.0929H573.712L568.473 71.5ZM571.886 57.1314H577.8V49.9868H571.886C569.624 49.9868 567.917 51.3363 567.917 53.5591C567.917 55.7818 569.624 57.1314 571.886 57.1314ZM596.082 71.5H590.644V45.0252H596.28V62.1326L608.545 45.0252H614.34V71.5H608.704V53.7575L596.082 71.5ZM263.312 119.976C255.374 119.976 249.222 114.419 249.222 106.282C249.222 98.1455 255.374 92.5886 263.312 92.5886C269.147 92.5886 272.521 95.764 274.387 99.0585L269.544 101.44C268.433 99.2966 266.051 97.5898 263.312 97.5898C258.51 97.5898 255.017 101.281 255.017 106.282C255.017 111.284 258.51 114.975 263.312 114.975C266.051 114.975 268.433 113.308 269.544 111.125L274.387 113.467C272.481 116.761 269.147 119.976 263.312 119.976ZM292.269 119.976C284.291 119.976 278.456 114.261 278.456 106.282C278.456 98.3043 284.291 92.5886 292.269 92.5886C300.287 92.5886 306.122 98.3043 306.122 106.282C306.122 114.261 300.287 119.976 292.269 119.976ZM292.269 114.975C297.151 114.975 300.326 111.204 300.326 106.282C300.326 101.321 297.151 97.5898 292.269 97.5898C287.387 97.5898 284.251 101.321 284.251 106.282C284.251 111.204 287.387 114.975 292.269 114.975ZM332.344 127.756V119.5H329.05L322.461 108.783L315.872 119.5H309.442L318.849 104.893L310.037 91.1597H316.666L322.778 101.361L328.772 91.1597H335.242L326.351 105.211L332.463 114.34H338.139V127.756H332.344ZM348.982 119.5H343.544V93.0252H349.18V110.133L361.445 93.0252H367.24V119.5H361.604V101.758L348.982 119.5ZM374.445 93.0252H393.775V97.9868H380.081V102.67H386.948C392.584 102.67 395.72 106.521 395.72 111.085C395.72 115.65 392.624 119.5 386.948 119.5H374.445V93.0252ZM386.194 107.632H380.081V114.538H386.194C388.377 114.538 389.965 113.189 389.965 111.085C389.965 108.942 388.377 107.632 386.194 107.632ZM423.863 119.5H416.917L408.899 108.902L406.835 111.363V119.5H401.199V93.0252H406.835V104.854L416.202 93.0252H423.148L412.63 105.449L423.863 119.5ZM439.099 119.976C431.121 119.976 425.287 114.261 425.287 106.282C425.287 98.3043 431.121 92.5886 439.099 92.5886C447.117 92.5886 452.952 98.3043 452.952 106.282C452.952 114.261 447.117 119.976 439.099 119.976ZM439.099 114.975C443.982 114.975 447.157 111.204 447.157 106.282C447.157 101.321 443.982 97.5898 439.099 97.5898C434.217 97.5898 431.082 101.321 431.082 106.282C431.082 111.204 434.217 114.975 439.099 114.975ZM464.528 119.5H458.892V93.0252H471.276C477.031 93.0252 480.167 96.9151 480.167 101.559C480.167 106.163 476.992 110.093 471.276 110.093H464.528V119.5ZM470.522 105.131C472.745 105.131 474.412 103.742 474.412 101.559C474.412 99.3363 472.745 97.9868 470.522 97.9868H464.528V105.131H470.522ZM498.188 119.976C490.21 119.976 484.375 114.261 484.375 106.282C484.375 98.3043 490.21 92.5886 498.188 92.5886C506.206 92.5886 512.041 98.3043 512.041 106.282C512.041 114.261 506.206 119.976 498.188 119.976ZM498.188 114.975C503.07 114.975 506.246 111.204 506.246 106.282C506.246 101.321 503.07 97.5898 498.188 97.5898C493.306 97.5898 490.17 101.321 490.17 106.282C490.17 111.204 493.306 114.975 498.188 114.975ZM541.796 119.5H536.12V108.386H523.617V119.5H517.981V93.0252H523.617V103.425H536.12V93.0252H541.796V119.5ZM554.436 119.5H548.998V93.0252H554.634V110.133L566.899 93.0252H572.694V119.5H567.058V101.758L554.436 119.5ZM250.492 141.025H269.822V145.987H256.128V150.67H262.995C268.631 150.67 271.767 154.521 271.767 159.085C271.767 163.65 268.671 167.5 262.995 167.5H250.492V141.025ZM262.241 155.632H256.128V162.538H262.241C264.424 162.538 266.012 161.189 266.012 159.085C266.012 156.942 264.424 155.632 262.241 155.632ZM301.934 167.5H295.504L293.876 163.015H282.524L280.857 167.5H274.427L284.668 141.025H291.733L301.934 167.5ZM292.328 158.053L288.2 146.662L284.072 158.053H292.328ZM304.776 172.382V162.975C307.475 162.618 308.983 161.546 309.817 154.56L311.365 141.025H330.179V162.538H332.56V172.382H326.924V167.5H310.412V172.382H304.776ZM315.413 154.957C315.016 158.53 313.865 160.99 312.198 162.538H324.503V145.987H316.445L315.413 154.957ZM362.535 167.5H356.104L354.477 163.015H343.125L341.458 167.5H335.028L345.268 141.025H352.334L362.535 167.5ZM352.929 158.053L348.801 146.662L344.673 158.053H352.929ZM390.978 167.5H384.23L377.601 157.815L370.933 167.5H364.225L373.831 153.925L364.821 141.025H371.529L377.601 150.075L383.595 141.025H390.382L381.372 153.886L390.978 167.5ZM423.564 141.025H429.24V167.5H395.462V141.025H401.098V162.538H409.513V141.025H415.189V162.538H423.564V141.025ZM449.023 167.976C441.044 167.976 435.21 162.261 435.21 154.282C435.21 146.304 441.044 140.589 449.023 140.589C457.04 140.589 462.875 146.304 462.875 154.282C462.875 162.261 457.04 167.976 449.023 167.976ZM449.023 162.975C453.905 162.975 457.08 159.204 457.08 154.282C457.08 149.321 453.905 145.59 449.023 145.59C444.14 145.59 441.005 149.321 441.005 154.282C441.005 159.204 444.14 162.975 449.023 162.975ZM492.63 167.5H486.954V156.386H474.451V167.5H468.815V141.025H474.451V151.425H486.954V141.025H492.63V167.5Z" fill="#666666"/>
</svg>
