<svg width="127" height="44" viewBox="0 0 127 44" fill="none" xmlns="http://www.w3.org/2000/svg">
<path fill-rule="evenodd" clip-rule="evenodd" d="M126.059 10.898V19.7212V30.1334V34.6723C126.059 37.0163 124.112 38.9566 121.761 38.9566V30.1334V19.7212V15.1823C121.761 12.8382 123.707 10.898 126.059 10.898ZM10.9028 15.9987C10.9028 14.4712 12.1357 13.1894 13.7209 13.1894C15.3061 13.1894 16.539 14.4097 16.539 15.9987C16.539 17.5263 15.3149 18.8081 13.7209 18.8081C12.1357 18.8081 10.9028 17.5878 10.9028 15.9987ZM26.9749 15.9987C26.9749 14.4712 28.199 13.1894 29.793 13.1894C31.3254 13.1894 32.6112 14.4097 32.6112 15.9987C32.6112 17.5263 31.387 18.8081 29.793 18.8081C28.2607 18.8081 26.9749 17.5878 26.9749 15.9987ZM21.7526 13.2421C23.2849 13.2421 24.5707 14.4624 24.5707 16.0514C24.5707 17.579 23.3466 18.8608 21.7526 18.8608C20.2202 18.8608 18.9344 17.6405 18.9344 16.0514C18.9344 14.4712 20.2114 13.2421 21.7526 13.2421ZM21.7526 21.2488C23.2849 21.2488 24.5707 22.4779 24.5707 24.0581C24.5707 25.5857 23.3466 26.8675 21.7526 26.8675C20.2202 26.8675 18.9344 25.6472 18.9344 24.0581C18.9344 22.4779 20.2114 21.2488 21.7526 21.2488ZM21.7526 29.2555C23.2849 29.2555 24.5707 30.4846 24.5707 32.0648C24.5707 33.5924 23.3466 34.8742 21.7526 34.8742C20.2202 34.8742 18.9344 33.6539 18.9344 32.0648C18.9344 30.4846 20.2114 29.2555 21.7526 29.2555ZM21.7526 0.63501C33.166 0.63501 42.4834 9.51086 43.1439 20.7396L43.1968 43.3901H21.7526C9.93402 43.3901 0.30835 33.7943 0.30835 22.0126C0.30835 10.2308 9.88118 0.63501 21.7526 0.63501ZM21.7526 5.02465C30.8146 5.02465 38.2298 12.1183 38.7406 20.9942L38.7934 39.0005H21.7526C12.3382 39.0005 4.71168 31.3976 4.71168 22.0126C4.71168 12.6275 12.3382 5.02465 21.7526 5.02465ZM86.0323 22.3725L87.5647 20.8449C85.5215 18.7554 82.8531 17.6317 79.9381 17.6317C74.0024 17.6317 69.238 22.4252 69.238 28.2985C69.238 38.0435 81.0125 42.4331 87.6087 35.7433L86.0764 34.2157C85.821 33.9611 85.5656 33.7065 85.2045 33.6012C84.588 33.3993 83.9804 33.4519 83.4168 33.7504C82.9588 34.0577 82.448 34.2596 81.9284 34.4177C77.8333 35.6907 73.5885 32.6355 73.5885 28.2985C73.5885 24.7253 76.4507 21.8721 80.035 21.8721C81.2591 21.8721 82.4392 22.232 83.4168 22.8378C83.9804 23.1451 84.5968 23.1978 85.2045 22.9871C85.5656 22.8817 85.7681 22.6798 86.0235 22.3725H86.0323ZM68.5775 36.8583C67.6088 37.4729 66.5784 37.9294 65.46 38.3859C64.3856 38.7985 63.2055 39.0005 61.9285 39.0005C60.7044 39.0005 59.63 38.7458 58.6524 38.2367C57.7277 37.7275 56.9616 36.9637 56.4508 35.9892C55.94 35.0234 55.6846 33.847 55.6846 32.5213V25.6823H55.7374V21.8545H51.4926C51.4926 19.5105 53.3861 17.6229 55.7374 17.5702V15.1208C55.7374 12.7767 57.6837 10.8365 60.0351 10.8365V17.5702H66.737C66.737 19.9143 64.7907 21.8545 62.4393 21.8545H60.0351V25.6823H60.0879V31.5029C60.0879 32.574 60.3433 33.3905 60.8541 33.9524C61.3649 34.5142 62.087 34.8215 63.0029 34.8215C63.364 34.8215 63.7163 34.7688 64.0773 34.6723C64.4384 34.5669 64.7907 34.365 65.2046 34.1631C65.5657 34.0138 65.9179 33.9085 66.3318 33.9085C66.6929 33.9085 67.0011 34.0138 67.2565 34.1631C67.5119 34.3123 67.7145 34.5757 67.8202 34.8303L68.5863 36.8671L68.5775 36.8583ZM93.3507 28.2371C93.4035 27.1133 94.2754 26.2442 95.3938 26.2003H95.4466H105.935C105.477 24.8219 104.5 23.6455 103.329 22.8817C103.329 22.8817 103.276 22.8817 103.276 22.829C102.307 22.2145 101.127 21.8633 99.894 21.8633C97.0759 21.8633 94.6717 23.6982 93.7998 26.2003C93.7998 26.2529 93.747 26.3056 93.747 26.3056V26.3583C93.747 26.411 93.747 26.4636 93.6941 26.4636C93.6941 26.5163 93.6941 26.569 93.6413 26.569C93.6413 26.6217 93.6413 26.6743 93.5884 26.6743C93.5884 26.727 93.5884 26.7797 93.5356 26.8236C93.5356 26.8763 93.5356 26.9289 93.4828 26.9728V27.0255C93.4828 27.0782 93.4828 27.1309 93.4828 27.1748C93.4828 27.2274 93.4828 27.2801 93.4828 27.324V27.3767C93.4828 27.4294 93.4828 27.482 93.4828 27.5259C93.4828 27.5786 93.4828 27.6313 93.4828 27.6752C93.4828 27.7279 93.4828 27.7805 93.4828 27.8244C93.4828 27.8771 93.4828 27.9298 93.4828 27.9737V28.0264L93.333 28.2283L93.3507 28.2371ZM108.498 30.4319H108.348H93.7117C94.7861 33.5924 98.3176 35.5326 101.743 34.4616C102.254 34.3123 102.765 34.0489 103.232 33.7943C103.795 33.4871 104.412 33.4344 105.019 33.6451C105.433 33.7943 105.636 34.005 105.891 34.2596L107.424 35.7872C100.872 42.4683 89.1059 38.0347 89.1059 28.3424C89.1059 22.4252 93.9143 17.6756 99.8059 17.6756C100.317 17.6756 100.775 17.7283 101.241 17.7809C101.347 17.7809 101.444 17.8336 101.55 17.8336C101.603 17.8336 101.655 17.8336 101.699 17.8863H101.752C103.496 18.1936 105.081 18.9047 106.411 20.0284C108.868 21.9687 110.453 24.9273 110.506 28.2897C110.506 28.3424 110.506 28.3424 110.506 28.3951C110.506 29.4135 109.634 30.3353 108.507 30.4319H108.498ZM113.157 39.0005V19.7651V15.2262C113.157 12.8821 115.103 10.9419 117.454 10.9419V30.1773V34.7162C117.454 37.0602 115.508 39.0005 113.157 39.0005Z" fill="#821EBE"/>
</svg>
