<svg width="518" height="170" viewBox="0 0 518 170" fill="none" xmlns="http://www.w3.org/2000/svg">
<path d="M77.4764 19.1253L93.7562 35.4051L77.4764 51.6849L61.1966 35.4051L77.4764 19.1253ZM77.4764 0L42.0713 35.4051L77.4764 70.8102L112.881 35.4051L77.4764 0Z" fill="white"/>
<path d="M58.2758 65.4569L45.9316 53.1128L33.5875 65.4569L45.9316 77.8011L58.2758 65.4569Z" fill="white"/>
<path d="M67.5086 103.277L57.2273 92.9958L71.6535 78.5723L62.6477 69.5665L45.8641 86.3529L29.0592 69.548L0 98.6098L12.957 111.564L19.356 105.165L13.0074 98.8193L29.0061 82.8206L43.7479 97.5597V142.514L50.9583 149.725L67.5086 103.277Z" fill="white"/>
<path d="M16.7329 115.343L27.2953 104.778L21.4612 98.9439L29.4141 90.991L38.343 99.9198V136.953L16.7329 115.343Z" fill="white"/>
<path d="M109.455 77.8017L121.799 65.4575L109.455 53.1134L97.111 65.4575L109.455 77.8017Z" fill="white"/>
<path d="M87.8781 103.277L98.1593 92.9954L83.7358 78.5719L92.7389 69.5662L109.525 86.3525L126.327 69.5476L155.389 98.6094L142.432 111.564L136.033 105.165L142.379 98.8189L126.381 82.8202L111.641 97.5593V142.514L104.428 149.724L87.8781 103.277Z" fill="white"/>
<path d="M138.655 115.343L128.09 104.778L133.927 98.9436L125.974 90.9906L117.042 99.9194V136.953L138.655 115.343Z" fill="white"/>
<path d="M79.8588 99.9859L87.9841 91.8606L77.5649 81.4414L67.1484 91.8606L75.531 100.243L58.5325 149.064L57.9756 149.621L77.5649 169.21L97.1543 149.621L79.8588 99.9859Z" fill="white"/>
<path d="M194.688 57.6051L204.434 35.7379H209.433L219.21 57.6051H213.9L205.903 38.2995H207.902L199.874 57.6051H194.688ZM199.561 52.9193L200.904 49.0769H212.15L213.525 52.9193H199.561ZM233.707 57.98C232.02 57.98 230.448 57.7092 228.99 57.1678C227.553 56.6055 226.304 55.8141 225.241 54.7936C224.179 53.7731 223.346 52.5756 222.742 51.2011C222.159 49.8266 221.868 48.3168 221.868 46.6715C221.868 45.0263 222.159 43.5164 222.742 42.1419C223.346 40.7674 224.179 39.5699 225.241 38.5494C226.324 37.5289 227.584 36.748 229.021 36.2065C230.458 35.6442 232.031 35.363 233.738 35.363C235.634 35.363 237.341 35.6963 238.862 36.3627C240.403 37.0083 241.694 37.9663 242.735 39.2367L239.486 42.2356C238.737 41.3817 237.904 40.7465 236.987 40.33C236.071 39.8927 235.071 39.674 233.988 39.674C232.968 39.674 232.031 39.8406 231.177 40.1738C230.323 40.507 229.584 40.986 228.959 41.6108C228.334 42.2356 227.845 42.9749 227.491 43.8288C227.157 44.6826 226.991 45.6302 226.991 46.6715C226.991 47.7128 227.157 48.6604 227.491 49.5142C227.845 50.3681 228.334 51.1074 228.959 51.7322C229.584 52.357 230.323 52.836 231.177 53.1692C232.031 53.5024 232.968 53.669 233.988 53.669C235.071 53.669 236.071 53.4607 236.987 53.0442C237.904 52.6069 238.737 51.9509 239.486 51.0762L242.735 54.0751C241.694 55.3455 240.403 56.3139 238.862 56.9803C237.341 57.6468 235.623 57.98 233.707 57.98ZM257.478 57.98C255.791 57.98 254.219 57.7092 252.761 57.1678C251.324 56.6055 250.074 55.8141 249.012 54.7936C247.95 53.7731 247.117 52.5756 246.513 51.2011C245.93 49.8266 245.638 48.3168 245.638 46.6715C245.638 45.0263 245.93 43.5164 246.513 42.1419C247.117 40.7674 247.95 39.5699 249.012 38.5494C250.095 37.5289 251.355 36.748 252.792 36.2065C254.229 35.6442 255.801 35.363 257.509 35.363C259.404 35.363 261.112 35.6963 262.632 36.3627C264.174 37.0083 265.465 37.9663 266.506 39.2367L263.257 42.2356C262.507 41.3817 261.674 40.7465 260.758 40.33C259.842 39.8927 258.842 39.674 257.759 39.674C256.739 39.674 255.801 39.8406 254.948 40.1738C254.094 40.507 253.354 40.986 252.73 41.6108C252.105 42.2356 251.615 42.9749 251.261 43.8288C250.928 44.6826 250.762 45.6302 250.762 46.6715C250.762 47.7128 250.928 48.6604 251.261 49.5142C251.615 50.3681 252.105 51.1074 252.73 51.7322C253.354 52.357 254.094 52.836 254.948 53.1692C255.801 53.5024 256.739 53.669 257.759 53.669C258.842 53.669 259.842 53.4607 260.758 53.0442C261.674 52.6069 262.507 51.9509 263.257 51.0762L266.506 54.0751C265.465 55.3455 264.174 56.3139 262.632 56.9803C261.112 57.6468 259.394 57.98 257.478 57.98ZM281.374 57.98C279.645 57.98 278.042 57.6988 276.563 57.1365C275.105 56.5742 273.835 55.7828 272.752 54.7624C271.69 53.7419 270.857 52.5444 270.253 51.1699C269.67 49.7954 269.378 48.2959 269.378 46.6715C269.378 45.0471 269.67 43.5476 270.253 42.1731C270.857 40.7986 271.7 39.6011 272.783 38.5806C273.866 37.5602 275.136 36.7688 276.594 36.2065C278.052 35.6442 279.635 35.363 281.343 35.363C283.071 35.363 284.654 35.6442 286.091 36.2065C287.549 36.7688 288.809 37.5602 289.871 38.5806C290.954 39.6011 291.797 40.7986 292.401 42.1731C293.005 43.5268 293.307 45.0263 293.307 46.6715C293.307 48.2959 293.005 49.8058 292.401 51.2011C291.797 52.5756 290.954 53.7731 289.871 54.7936C288.809 55.7932 287.549 56.5742 286.091 57.1365C284.654 57.6988 283.081 57.98 281.374 57.98ZM281.343 53.669C282.321 53.669 283.217 53.5024 284.029 53.1692C284.862 52.836 285.591 52.357 286.216 51.7322C286.841 51.1074 287.32 50.3681 287.653 49.5142C288.007 48.6604 288.184 47.7128 288.184 46.6715C288.184 45.6302 288.007 44.6826 287.653 43.8288C287.32 42.9749 286.841 42.2356 286.216 41.6108C285.612 40.986 284.893 40.507 284.06 40.1738C283.227 39.8406 282.321 39.674 281.343 39.674C280.364 39.674 279.458 39.8406 278.625 40.1738C277.813 40.507 277.094 40.986 276.469 41.6108C275.844 42.2356 275.355 42.9749 275.001 43.8288C274.668 44.6826 274.501 45.6302 274.501 46.6715C274.501 47.692 274.668 48.6396 275.001 49.5142C275.355 50.3681 275.834 51.1074 276.438 51.7322C277.063 52.357 277.792 52.836 278.625 53.1692C279.458 53.5024 280.364 53.669 281.343 53.669ZM303.179 57.6051V38.7056L304.335 39.8614H296.213V35.7379H315.175V39.8614H307.053L308.178 38.7056V57.6051H303.179ZM329.95 57.98C328.263 57.98 326.69 57.7092 325.233 57.1678C323.796 56.6055 322.546 55.8141 321.484 54.7936C320.422 53.7731 319.589 52.5756 318.985 51.2011C318.402 49.8266 318.11 48.3168 318.11 46.6715C318.11 45.0263 318.402 43.5164 318.985 42.1419C319.589 40.7674 320.422 39.5699 321.484 38.5494C322.567 37.5289 323.827 36.748 325.264 36.2065C326.701 35.6442 328.273 35.363 329.981 35.363C331.876 35.363 333.584 35.6963 335.104 36.3627C336.645 37.0083 337.936 37.9663 338.978 39.2367L335.729 42.2356C334.979 41.3817 334.146 40.7465 333.23 40.33C332.313 39.8927 331.314 39.674 330.231 39.674C329.21 39.674 328.273 39.8406 327.419 40.1738C326.565 40.507 325.826 40.986 325.201 41.6108C324.577 42.2356 324.087 42.9749 323.733 43.8288C323.4 44.6826 323.233 45.6302 323.233 46.6715C323.233 47.7128 323.4 48.6604 323.733 49.5142C324.087 50.3681 324.577 51.1074 325.201 51.7322C325.826 52.357 326.565 52.836 327.419 53.1692C328.273 53.5024 329.21 53.669 330.231 53.669C331.314 53.669 332.313 53.4607 333.23 53.0442C334.146 52.6069 334.979 51.9509 335.729 51.0762L338.978 54.0751C337.936 55.3455 336.645 56.3139 335.104 56.9803C333.584 57.6468 331.866 57.98 329.95 57.98ZM343.838 57.6051V35.7379H348.867V49.9828L359.301 35.7379H364.05V57.6051H359.051V43.3914L348.618 57.6051H343.838ZM368.588 57.6051L378.335 35.7379H383.333L393.111 57.6051H387.8L379.803 38.2995H381.802L373.774 57.6051H368.588ZM373.461 52.9193L374.805 49.0769H386.051L387.425 52.9193H373.461ZM401.191 57.6051V38.7056L402.347 39.8614H394.225V35.7379H413.187V39.8614H405.065L406.19 38.7056V57.6051H401.191ZM427.962 57.98C426.275 57.98 424.702 57.7092 423.244 57.1678C421.807 56.6055 420.558 55.8141 419.496 54.7936C418.434 53.7731 417.601 52.5756 416.997 51.2011C416.414 49.8266 416.122 48.3168 416.122 46.6715C416.122 45.0263 416.414 43.5164 416.997 42.1419C417.601 40.7674 418.434 39.5699 419.496 38.5494C420.579 37.5289 421.839 36.748 423.276 36.2065C424.713 35.6442 426.285 35.363 427.993 35.363C429.888 35.363 431.596 35.6963 433.116 36.3627C434.657 37.0083 435.948 37.9663 436.99 39.2367L433.741 42.2356C432.991 41.3817 432.158 40.7465 431.242 40.33C430.325 39.8927 429.326 39.674 428.243 39.674C427.222 39.674 426.285 39.8406 425.431 40.1738C424.577 40.507 423.838 40.986 423.213 41.6108C422.588 42.2356 422.099 42.9749 421.745 43.8288C421.412 44.6826 421.245 45.6302 421.245 46.6715C421.245 47.7128 421.412 48.6604 421.745 49.5142C422.099 50.3681 422.588 51.1074 423.213 51.7322C423.838 52.357 424.577 52.836 425.431 53.1692C426.285 53.5024 427.222 53.669 428.243 53.669C429.326 53.669 430.325 53.4607 431.242 53.0442C432.158 52.6069 432.991 51.9509 433.741 51.0762L436.99 54.0751C435.948 55.3455 434.657 56.3139 433.116 56.9803C431.596 57.6468 429.878 57.98 427.962 57.98ZM441.85 57.6051V35.7379H446.879V49.9828L457.313 35.7379H462.061V57.6051H457.063V43.3914L446.629 57.6051H441.85ZM481.532 57.6051V50.7013L482.782 51.7947H476.784C474.889 51.7947 473.254 51.4823 471.879 50.8575C470.505 50.2327 469.453 49.3268 468.724 48.1397C467.995 46.9527 467.631 45.5365 467.631 43.8912C467.631 42.1835 468.016 40.7257 468.787 39.5178C469.578 38.2891 470.682 37.3519 472.098 36.7063C473.514 36.0607 475.18 35.7379 477.096 35.7379H486.53V57.6051H481.532ZM467.693 57.6051L473.129 49.7642H478.252L473.035 57.6051H467.693ZM481.532 49.0769V38.5494L482.782 39.8614H477.221C475.784 39.8614 474.681 40.1947 473.91 40.8611C473.16 41.5275 472.785 42.5167 472.785 43.8288C472.785 45.0992 473.15 46.078 473.879 46.7652C474.608 47.4525 475.68 47.7961 477.096 47.7961H482.782L481.532 49.0769ZM493.571 57.6051V35.7379H498.6V49.9828L509.034 35.7379H513.782V57.6051H508.784V43.3914L498.35 57.6051H493.571ZM207.496 95.98C205.809 95.98 204.237 95.7092 202.779 95.1678C201.342 94.6055 200.092 93.8141 199.03 92.7936C197.968 91.7731 197.135 90.5756 196.531 89.2011C195.948 87.8266 195.656 86.3168 195.656 84.6715C195.656 83.0263 195.948 81.5164 196.531 80.1419C197.135 78.7674 197.968 77.5699 199.03 76.5494C200.113 75.5289 201.373 74.748 202.81 74.2065C204.247 73.6442 205.819 73.363 207.527 73.363C209.422 73.363 211.13 73.6963 212.65 74.3627C214.191 75.0083 215.483 75.9663 216.524 77.2367L213.275 80.2356C212.525 79.3817 211.692 78.7465 210.776 78.33C209.86 77.8927 208.86 77.674 207.777 77.674C206.757 77.674 205.819 77.8406 204.965 78.1738C204.112 78.507 203.372 78.986 202.748 79.6108C202.123 80.2356 201.633 80.9749 201.279 81.8288C200.946 82.6826 200.779 83.6302 200.779 84.6715C200.779 85.7128 200.946 86.6604 201.279 87.5142C201.633 88.3681 202.123 89.1074 202.748 89.7322C203.372 90.357 204.112 90.836 204.965 91.1692C205.819 91.5024 206.757 91.669 207.777 91.669C208.86 91.669 209.86 91.4607 210.776 91.0442C211.692 90.6069 212.525 89.9509 213.275 89.0762L216.524 92.0751C215.483 93.3455 214.191 94.3139 212.65 94.9803C211.13 95.6468 209.412 95.98 207.496 95.98ZM231.392 95.98C229.663 95.98 228.059 95.6988 226.581 95.1365C225.123 94.5742 223.853 93.7828 222.77 92.7624C221.708 91.7419 220.875 90.5444 220.271 89.1699C219.687 87.7954 219.396 86.2959 219.396 84.6715C219.396 83.0471 219.687 81.5476 220.271 80.1731C220.875 78.7986 221.718 77.6011 222.801 76.5806C223.884 75.5602 225.154 74.7688 226.612 74.2065C228.07 73.6442 229.653 73.363 231.36 73.363C233.089 73.363 234.672 73.6442 236.109 74.2065C237.566 74.7688 238.826 75.5602 239.889 76.5806C240.972 77.6011 241.815 78.7986 242.419 80.1731C243.023 81.5268 243.325 83.0263 243.325 84.6715C243.325 86.2959 243.023 87.8058 242.419 89.2011C241.815 90.5756 240.972 91.7731 239.889 92.7936C238.826 93.7932 237.566 94.5742 236.109 95.1365C234.672 95.6988 233.099 95.98 231.392 95.98ZM231.36 91.669C232.339 91.669 233.235 91.5024 234.047 91.1692C234.88 90.836 235.609 90.357 236.234 89.7322C236.858 89.1074 237.337 88.3681 237.671 87.5142C238.025 86.6604 238.202 85.7128 238.202 84.6715C238.202 83.6302 238.025 82.6826 237.671 81.8288C237.337 80.9749 236.858 80.2356 236.234 79.6108C235.63 78.986 234.911 78.507 234.078 78.1738C233.245 77.8406 232.339 77.674 231.36 77.674C230.382 77.674 229.476 77.8406 228.643 78.1738C227.83 78.507 227.112 78.986 226.487 79.6108C225.862 80.2356 225.373 80.9749 225.019 81.8288C224.686 82.6826 224.519 83.6302 224.519 84.6715C224.519 85.692 224.686 86.6396 225.019 87.5142C225.373 88.3681 225.852 89.1074 226.456 89.7322C227.081 90.357 227.81 90.836 228.643 91.1692C229.476 91.5024 230.382 91.669 231.36 91.669ZM246.087 73.7379H251.928L256.458 80.3605L260.987 73.7379H266.923L259.644 84.2029L267.516 95.6051H261.55L256.458 88.3577L251.428 95.6051H245.587L253.396 84.4216L246.087 73.7379ZM263.674 100.135V94.418L264.83 95.6051H261.55V91.4816H268.329V100.135H263.674ZM272.312 95.6051V73.7379H277.341V87.9828L287.775 73.7379H292.524V95.6051H287.525V81.3914L277.092 95.6051H272.312ZM299.53 95.6051V73.7379H317.18V77.7677H304.56V82.2661H310.62C313.265 82.2661 315.274 82.818 316.649 83.9218C318.044 85.0255 318.742 86.6291 318.742 88.7326C318.742 90.8984 317.971 92.5853 316.43 93.7932C314.889 95.0012 312.713 95.6051 309.901 95.6051H299.53ZM304.56 91.8564H309.62C310.911 91.8564 311.901 91.6065 312.588 91.1067C313.275 90.5861 313.619 89.8363 313.619 88.8575C313.619 86.9415 312.286 85.9835 309.62 85.9835H304.56V91.8564ZM338.306 95.6051L331.496 85.0776L335.589 82.6097L344.054 95.6051H338.306ZM324.093 95.6051V73.7379H329.122V95.6051H324.093ZM327.654 86.7957V82.5785H335.276V86.7957H327.654ZM336.057 85.2338L331.403 84.6715L338.494 73.7379H343.836L336.057 85.2338ZM358.36 95.98C356.632 95.98 355.028 95.6988 353.55 95.1365C352.092 94.5742 350.821 93.7828 349.738 92.7624C348.676 91.7419 347.843 90.5444 347.239 89.1699C346.656 87.7954 346.365 86.2959 346.365 84.6715C346.365 83.0471 346.656 81.5476 347.239 80.1731C347.843 78.7986 348.687 77.6011 349.77 76.5806C350.853 75.5602 352.123 74.7688 353.581 74.2065C355.039 73.6442 356.621 73.363 358.329 73.363C360.058 73.363 361.64 73.6442 363.077 74.2065C364.535 74.7688 365.795 75.5602 366.857 76.5806C367.94 77.6011 368.784 78.7986 369.388 80.1731C369.992 81.5268 370.294 83.0263 370.294 84.6715C370.294 86.2959 369.992 87.8058 369.388 89.2011C368.784 90.5756 367.94 91.7731 366.857 92.7936C365.795 93.7932 364.535 94.5742 363.077 95.1365C361.64 95.6988 360.068 95.98 358.36 95.98ZM358.329 91.669C359.308 91.669 360.204 91.5024 361.016 91.1692C361.849 90.836 362.578 90.357 363.202 89.7322C363.827 89.1074 364.306 88.3681 364.639 87.5142C364.993 86.6604 365.17 85.7128 365.17 84.6715C365.17 83.6302 364.993 82.6826 364.639 81.8288C364.306 80.9749 363.827 80.2356 363.202 79.6108C362.598 78.986 361.88 78.507 361.047 78.1738C360.214 77.8406 359.308 77.674 358.329 77.674C357.35 77.674 356.444 77.8406 355.611 78.1738C354.799 78.507 354.081 78.986 353.456 79.6108C352.831 80.2356 352.342 80.9749 351.988 81.8288C351.654 82.6826 351.488 83.6302 351.488 84.6715C351.488 85.692 351.654 86.6396 351.988 87.5142C352.342 88.3681 352.821 89.1074 353.425 89.7322C354.049 90.357 354.778 90.836 355.611 91.1692C356.444 91.5024 357.35 91.669 358.329 91.669ZM375.754 95.6051V73.7379H385.219C387.177 73.7379 388.864 74.0607 390.28 74.7063C391.696 75.3311 392.79 76.237 393.56 77.4241C394.331 78.6112 394.716 80.0273 394.716 81.6726C394.716 83.297 394.331 84.7027 393.56 85.8898C392.79 87.0769 391.696 87.9932 390.28 88.6388C388.864 89.2636 387.177 89.576 385.219 89.576H378.566L380.815 87.2956V95.6051H375.754ZM380.815 87.8579L378.566 85.4525H384.938C386.5 85.4525 387.667 85.1193 388.437 84.4528C389.208 83.7864 389.593 82.8597 389.593 81.6726C389.593 80.4647 389.208 79.5275 388.437 78.8611C387.667 78.1947 386.5 77.8614 384.938 77.8614H378.566L380.815 75.456V87.8579ZM410.387 95.98C408.658 95.98 407.054 95.6988 405.576 95.1365C404.118 94.5742 402.848 93.7828 401.765 92.7624C400.702 91.7419 399.869 90.5444 399.265 89.1699C398.682 87.7954 398.391 86.2959 398.391 84.6715C398.391 83.0471 398.682 81.5476 399.265 80.1731C399.869 78.7986 400.713 77.6011 401.796 76.5806C402.879 75.5602 404.149 74.7688 405.607 74.2065C407.065 73.6442 408.648 73.363 410.355 73.363C412.084 73.363 413.667 73.6442 415.104 74.2065C416.561 74.7688 417.821 75.5602 418.883 76.5806C419.966 77.6011 420.81 78.7986 421.414 80.1731C422.018 81.5268 422.32 83.0263 422.32 84.6715C422.32 86.2959 422.018 87.8058 421.414 89.2011C420.81 90.5756 419.966 91.7731 418.883 92.7936C417.821 93.7932 416.561 94.5742 415.104 95.1365C413.667 95.6988 412.094 95.98 410.387 95.98ZM410.355 91.669C411.334 91.669 412.23 91.5024 413.042 91.1692C413.875 90.836 414.604 90.357 415.229 89.7322C415.853 89.1074 416.332 88.3681 416.666 87.5142C417.02 86.6604 417.197 85.7128 417.197 84.6715C417.197 83.6302 417.02 82.6826 416.666 81.8288C416.332 80.9749 415.853 80.2356 415.229 79.6108C414.625 78.986 413.906 78.507 413.073 78.1738C412.24 77.8406 411.334 77.674 410.355 77.674C409.376 77.674 408.471 77.8406 407.637 78.1738C406.825 78.507 406.107 78.986 405.482 79.6108C404.857 80.2356 404.368 80.9749 404.014 81.8288C403.681 82.6826 403.514 83.6302 403.514 84.6715C403.514 85.692 403.681 86.6396 404.014 87.5142C404.368 88.3681 404.847 89.1074 405.451 89.7322C406.076 90.357 406.804 90.836 407.637 91.1692C408.471 91.5024 409.376 91.669 410.355 91.669ZM442.775 73.7379H447.836V95.6051H442.775V73.7379ZM432.841 95.6051H427.78V73.7379H432.841V95.6051ZM443.15 86.6396H432.466V82.3598H443.15V86.6396ZM454.876 95.6051V73.7379H459.906V87.9828L470.339 73.7379H475.088V95.6051H470.09V81.3914L459.656 95.6051H454.876ZM197.156 133.605V111.738H214.806V115.768H202.185V120.266H208.246C210.89 120.266 212.9 120.818 214.275 121.922C215.67 123.026 216.368 124.629 216.368 126.733C216.368 128.898 215.597 130.585 214.056 131.793C212.515 133.001 210.339 133.605 207.527 133.605H197.156ZM202.185 129.856H207.246C208.537 129.856 209.526 129.607 210.214 129.107C210.901 128.586 211.244 127.836 211.244 126.858C211.244 124.942 209.912 123.984 207.246 123.984H202.185V129.856ZM219.191 133.605L228.937 111.738H233.936L243.713 133.605H238.403L230.406 114.299H232.405L224.377 133.605H219.191ZM224.064 128.919L225.407 125.077H236.653L238.028 128.919H224.064ZM262.792 131.356V115.861H255.295L255.201 119.048C255.138 120.401 255.045 121.682 254.92 122.89C254.816 124.098 254.649 125.202 254.42 126.201C254.191 127.18 253.889 128.013 253.514 128.701C253.16 129.388 252.712 129.877 252.171 130.169L246.766 129.482C247.516 129.502 248.131 129.242 248.61 128.701C249.109 128.159 249.505 127.399 249.797 126.42C250.088 125.421 250.296 124.254 250.421 122.921C250.567 121.589 250.671 120.141 250.734 118.579L250.984 111.738H267.79V131.356H262.792ZM246.048 138.135L246.079 129.482H270.852V138.135H266.166V133.605H250.734V138.135H246.048ZM273.474 133.605L283.221 111.738H288.219L297.997 133.605H292.686L284.689 114.299H286.688L278.66 133.605H273.474ZM278.348 128.919L279.691 125.077H290.937L292.311 128.919H278.348ZM299.394 111.738H305.236L309.765 118.361L314.295 111.738H320.23L312.952 122.203L320.824 133.605H314.857L309.765 126.358L304.736 133.605H298.894L306.704 122.422L299.394 111.738ZM337.762 129.482L336.637 130.637V111.738H341.667V130.637L340.48 129.482H349.727L348.539 130.637V111.738H353.569V133.605H324.704V111.738H329.734V130.637L328.578 129.482H337.762ZM371.021 133.98C369.292 133.98 367.689 133.699 366.21 133.137C364.752 132.574 363.482 131.783 362.399 130.762C361.337 129.742 360.504 128.544 359.9 127.17C359.317 125.795 359.025 124.296 359.025 122.672C359.025 121.047 359.317 119.548 359.9 118.173C360.504 116.799 361.347 115.601 362.43 114.581C363.513 113.56 364.783 112.769 366.241 112.206C367.699 111.644 369.282 111.363 370.989 111.363C372.718 111.363 374.301 111.644 375.738 112.206C377.196 112.769 378.456 113.56 379.518 114.581C380.601 115.601 381.444 116.799 382.048 118.173C382.652 119.527 382.954 121.026 382.954 122.672C382.954 124.296 382.652 125.806 382.048 127.201C381.444 128.576 380.601 129.773 379.518 130.794C378.456 131.793 377.196 132.574 375.738 133.137C374.301 133.699 372.728 133.98 371.021 133.98ZM370.989 129.669C371.968 129.669 372.864 129.502 373.676 129.169C374.509 128.836 375.238 128.357 375.863 127.732C376.487 127.107 376.966 126.368 377.3 125.514C377.654 124.66 377.831 123.713 377.831 122.672C377.831 121.63 377.654 120.683 377.3 119.829C376.966 118.975 376.487 118.236 375.863 117.611C375.259 116.986 374.54 116.507 373.707 116.174C372.874 115.841 371.968 115.674 370.989 115.674C370.011 115.674 369.105 115.841 368.272 116.174C367.459 116.507 366.741 116.986 366.116 117.611C365.491 118.236 365.002 118.975 364.648 119.829C364.315 120.683 364.148 121.63 364.148 122.672C364.148 123.692 364.315 124.64 364.648 125.514C365.002 126.368 365.481 127.107 366.085 127.732C366.71 128.357 367.439 128.836 368.272 129.169C369.105 129.502 370.011 129.669 370.989 129.669ZM403.409 111.738H408.47V133.605H403.409V111.738ZM393.475 133.605H388.414V111.738H393.475V133.605ZM403.784 124.64H393.1V120.36H403.784V124.64Z" fill="white"/>
</svg>
